{
  "accessors": [
    {
      "bufferView": 0,
      "componentType": 5126,
      "count": 486,
      "type": "VEC3",
      "max": [
        0.50002384185791016,
        0.50002372264862061,
        0.50002402067184448
      ],
      "min": [
        -0.50002384185791016,
        -0.50002396106719971,
        -0.50002366304397583
      ]
    },
    {
      "bufferView": 1,
      "componentType": 5126,
      "count": 486,
      "type": "VEC3",
      "max": [
        1.0,
        1.0,
        1.0
      ],
      "min": [
        -1.0,
        -1.0,
        -1.0
      ]
    },
    {
      "bufferView": 2,
      "componentType": 5126,
      "count": 486,
      "type": "VEC4",
      "max": [
        1.0,
        0.70710688829422,
        1.0,
        1.0
      ],
      "min": [
        -1.0,
        -0.70710694789886475,
        -1.0,
        1.0
      ]
    },
    {
      "bufferView": 3,
      "componentType": 5126,
      "count": 486,
      "type": "VEC2",
      "max": [
        1.0,
        1.0
      ],
      "min": [
        0.0,
        0.0
      ]
    },
    {
      "bufferView": 4,
      "componentType": 5123,
      "count": 2304,
      "type": "SCALAR",
      "max": [
        485.0
      ],
      "min": [
        0.0
      ]
    }
  ],
  "asset": {
    "version": "2.0"
  },
  "buffers": [
    {
      "uri": "bitter_brook_2022-05-22_22.13.39.bin",
      "byteLength": 27936
    }
  ],
  "bufferViews": [
    {
      "buffer": 0,
      "byteLength": 5832
    },
    {
      "buffer": 0,
      "byteOffset": 5832,
      "byteLength": 5832
    },
    {
      "buffer": 0,
      "byteOffset": 11664,
      "byteLength": 7776
    },
    {
      "buffer": 0,
      "byteOffset": 19440,
      "byteLength": 3888
    },
    {
      "buffer": 0,
      "byteOffset": 23328,
      "byteLength": 4608
    }
  ],
  "materials": [
    {
      "pbrMetallicRoughness": {
        "baseColorFactor": [
          0.5019608,
          0.5019608,
          0.5019608,
          1.0
        ],
        "metallicFactor": 0.0
      },
      "name": "Spherabox 1 #808080FF"
    }
  ],
  "meshes": [
    {
      "primitives": [
        {
          "attributes": {
            "POSITION": 0,
            "NORMAL": 1,
            "TANGENT": 2,
            "TEXCOORD_0": 3
          },
          "indices": 4,
          "material": 0
        }
      ],
      "name": "Spherabox 7"
    }
  ],
  "nodes": [
    {
      "children": [
        1,
        3
      ],
      "rotation": [
        0.0,
        0.0,
        0.0,
        -1.0
      ],
      "name": "Space Root"
    },
    {
      "children": [
        2
      ],
      "rotation": [
        0.0,
        0.0,
        0.0,
        -1.0
      ],
      "name": "Viewpoints"
    },
    {
      "rotation": [
        0.0,
        0.0,
        0.0,
        -1.0
      ],
      "translation": [
        0.0,
        1.5,
        0.0
      ],
      "name": "Viewpoint 1"
    },
    {
      "children": [
        4,
        5
      ],
      "rotation": [
        0.0,
        0.0,
        0.0,
        -1.0
      ],
      "name": "Stage 2"
    },
    {
      "mesh": 0,
      "rotation": [
        -0.314019173,
        -0.9384104,
        0.116755113,
        0.0845354944
      ],
      "scale": [
        0.05813908,
        0.02943699,
        0.001217532
      ],
      "translation": [
        0.429351777,
        0.788263,
        -0.160731554
      ],
      "name": "Spherabox 7"
    },
    {
      "children": [
        6,
        7,
        8,
        9,
        10,
        11,
        12,
        13
      ],
      "rotation": [
        0.7427525,
        0.264825821,
        0.5735969,
        -0.221749038
      ],
      "scale": [
        1.00000072,
        1.00000167,
        1.00000083
      ],
      "translation": [
        0.5026213,
        0.79065907,
        -0.165822476
      ],
      "name": "GroupPreset 9"
    },
    {
      "rotation": [
        0.0,
        0.0,
        0.0,
        -1.0
      ],
      "name": "Group(Clone)"
    },
    {
      "mesh": 0,
      "rotation": [
        0.59842205,
        0.02727477,
        -0.2972547,
        -0.7434963
      ],
      "scale": [
        0.00900933,
        0.0357002765,
        0.0715044
      ],
      "translation": [
        -0.0313396379,
        0.112303793,
        -0.0180692077
      ],
      "name": "Spherabox 1"
    },
    {
      "mesh": 0,
      "rotation": [
        0.2878195,
        -0.739130735,
        0.139853522,
        -0.592694461
      ],
      "scale": [
        0.126448065,
        0.128762767,
        0.0557591543
      ],
      "translation": [
        -0.004726231,
        0.0275059342,
        -0.0349607468
      ],
      "name": "Spherabox 2"
    },
    {
      "mesh": 0,
      "rotation": [
        -0.550875247,
        0.142092958,
        -0.5315649,
        -0.627522767
      ],
      "scale": [
        0.07838136,
        0.007145229,
        0.0533547141
      ],
      "translation": [
        -0.03596583,
        0.008315295,
        -0.119082212
      ],
      "name": "Spherabox 3"
    },
    {
      "mesh": 0,
      "rotation": [
        0.662769,
        -0.246152937,
        -0.6554507,
        0.265575647
      ],
      "scale": [
        0.08636361,
        0.08550805,
        0.0339703
      ],
      "translation": [
        0.0229801983,
        -0.04350564,
        0.02758354
      ],
      "name": "Spherabox 4"
    },
    {
      "mesh": 0,
      "rotation": [
        0.204144478,
        -0.118478209,
        -0.9680494,
        -0.0846656859
      ],
      "scale": [
        0.0170079079,
        0.043281965,
        0.0173500758
      ],
      "translation": [
        0.0200714022,
        -0.09579471,
        0.03174305
      ],
      "name": "Spherabox 5"
    },
    {
      "mesh": 0,
      "rotation": [
        0.6249362,
        -0.453148574,
        -0.4779199,
        0.419170171
      ],
      "scale": [
        0.0149299968,
        0.0419698767,
        0.028150266
      ],
      "translation": [
        0.0229737163,
        -0.0521074533,
        0.0821692348
      ],
      "name": "Spherabox 6"
    },
    {
      "mesh": 0,
      "rotation": [
        -4.69788581E-08,
        -1.95490841E-08,
        -4.31922977E-08,
        -1.0
      ],
      "scale": [
        0.004828065,
        0.0231344271,
        0.0585028939
      ],
      "translation": [
        0.00210084114,
        0.0407491326,
        0.0343732238
      ],
      "name": "Spherabox 8"
    }
  ],
  "scene": 0,
  "scenes": [
    {
      "nodes": [
        0
      ],
      "name": "bitter_brook_2022-05-22_22.13.39"
    }
  ]
}